<?xml version="1.0" encoding="utf-8" ?>
<svg baseProfile="full" height="200mm" version="1.1" viewBox="0,0,200,200" width="200mm" xmlns="http://www.w3.org/2000/svg" xmlns:ev="http://www.w3.org/2001/xml-events" xmlns:xlink="http://www.w3.org/1999/xlink"><defs /><rect fill="#EDEBEB" height="200" width="200" x="0" y="0" /><text alignment-baseline="middle" fill="#0018ED" style="dominant-baseline: central; font-size:9.0px; font-family:Arial;" text-anchor="middle" x="100.0" y="100.0">2025</text><line stroke="#0018ED" stroke-width="0.3" x1="100.0" x2="100.0" y1="15.0" y2="10.0" /><path d="M 100.0 14.0 a86.0,86.0 0 0,1 42.46469731375804,11.215312516191453" fill="none" id="id85" stroke="none" /><text fill="#0018ED" style="font-size:6.75px; font-family:Arial;" text-anchor="middle"><textPath startOffset="22.20632615414155" xlink:href="#id85">January</textPath></text><path d="M 100.0 79.0 l 0.0 -10.878271360514756 a31.878271360514756,31.878271360514756 0 0,0 0.5487320385608851,0.004723109896780844 l -0.18725155928835682 10.876659627226534" fill="#0018ED" stroke="none" /><path d="M 102.52436894288641 79.15227682838746 l 0.6508213634272723 -5.374865531101475 a26.414124853059455,26.414124853059455 0 0,0 0.4509083199607937,0.058540841086344685 l -0.7432444118959122 5.362866366850993" fill="#0018ED" stroke="none" /><path d="M 105.36241919743992 79.69619591428918 l 1.5207921512825135 -5.758196955110907 a26.95563942337437,26.95563942337437 0 0,0 0.44759468401215224,0.12234453512766395 l -1.6196847245183768 5.731165879156949" fill="#0018ED" stroke="none" /><path d="M 107.08798089147638 80.2323363322302 l 1.7034747121784322 -4.750819125004749 a26.046990038977913,26.046990038977913 0 0,0 0.4207428276974741,0.1549631342357672 l -1.784999865648483 4.720792722962657" fill="#0018ED" stroke="none" /><path d="M 110.05341064243156 81.56283822128135 l 2.655368937282712 -4.8697370892456195 a26.546649755614673,26.546649755614673 0 0,0 0.3993070082685915,0.2222139177809463 l -2.7388000346233383 4.823307773904493" fill="#0018ED" stroke="none" /><line stroke="#0018ED" stroke-width="0.3" x1="143.23703022742887" x2="145.7803849466894" y1="26.81831364943548" y2="22.513508569990506" /><path d="M 143.74570117128098 25.957352633546492 a86.0,86.0 0 0,1 28.547481713284135,27.462654790039103" fill="none" id="id86" stroke="none" /><text fill="#0018ED" style="font-size:6.75px; font-family:Arial;" text-anchor="middle"><textPath startOffset="19.985693538727396" xlink:href="#id86">February</textPath></text><path d="M 110.68208982089419 81.91981866633111 l 2.686596431872218 -4.54725165890539 a26.281599950504237,26.281599950504237 0 0,0 0.3875133478651796,0.23347245617232726 l -2.7644718459550353 4.5003325932744485" fill="#0018ED" stroke="none" /><path d="M 111.2981086023043 82.29822771554956 l 2.3208151070447856 -3.6362316902176284 a25.313741260904536,25.313741260904536 0 0,0 0.3652808715628137,0.23758883981293474 l -2.3830630043918797 3.5957439262451656" fill="#0018ED" stroke="none" /><path d="M 114.16331599549186 84.49514656593476 l 3.303012826464767 -3.6158714372732095 a25.897389098558435,25.897389098558435 0 0,0 0.3265440220759787,0.3034870804664681 l -3.3647647323355927 3.558479770732101" fill="#0018ED" stroke="none" /><path d="M 114.68862486808459 84.99185889309783 l 3.9019804025306155 -3.986858742971146 a26.57857452205655,26.57857452205655 0 0,0 0.32421329881599065,0.3228210238762277 l -3.970029501513929 3.9191018684447996" fill="#0018ED" stroke="none" /><path d="M 115.9244219780498 86.31012108654704 l 2.742554197446456 -2.3577141404803528 a24.616686258739094,24.616686258739094 0 0,0 0.27346722072768354,0.3236989333399501 l -2.7827320316612565 2.3101562575112964" fill="#0018ED" stroke="none" /><path d="M 116.15771136456269 86.58626213691792 l 1.4352445109540761 -1.1915049851422106 a22.865371527562953,22.865371527562953 0 0,0 0.24879866063244196,0.30499773965059923 l -1.455541663662927 1.1666230758835106" fill="#0018ED" stroke="none" /><path d="M 116.60985879189232 87.15038557335679 l 1.7837016141053363 -1.3798960172149364 a23.255150652725362,23.255150652725362 0 0,0 0.24221242673637847,0.3187231617635466 l -1.8071899810658283 1.3489880795703564" fill="#0018ED" stroke="none" /><path d="M 116.82858285166822 87.43820079747576 l 1.212230316517406 -0.9048767776541886 a22.512714223844583,22.512714223844583 0 0,0 0.22913374873485068,0.31253817576865023 l -1.227626677765883 0.8838761582140446" fill="#0018ED" stroke="none" /><path d="M 117.04232023915458 87.72973835380427 l 1.5439476622208972 -1.1116233891649037 a22.902493349006992,22.902493349006992 0 0,0 0.22759339699825074,0.32191471966448687 l -1.5628536790230307 1.0848821691686235" fill="#0018ED" stroke="none" /><path d="M 117.65298651832404 88.62581576622439 l 1.8099066086790716 -1.166160252355884 a23.153065643754253,23.153065643754253 0 0,0 0.21297777831805662,0.33687969857507183 l -1.829711983243084 1.134832906066606" fill="#0018ED" stroke="none" /><line stroke="#0018ED" stroke-width="0.3" x1="172.23445277983987" x2="176.4835382374775" y1="55.19839476539836" y2="52.563006222186495" /><path d="M 173.08426987136738 54.67131705675599 a86.0,86.0 0 0,1 12.851231095245387,41.99856678651699" fill="none" id="id87" stroke="none" /><text fill="#0018ED" style="font-size:6.75px; font-family:Arial;" text-anchor="middle"><textPath startOffset="22.20632615414155" xlink:href="#id87">March</textPath></text><path d="M 118.3937258080291 89.86733742301442 l 1.820822947030041 -1.003047709161476 a23.078822000866175,23.078822000866175 0 0,0 0.1886879436727346,0.34961010289336975 l -1.8378189899212405 0.9715566229356475" fill="#0018ED" stroke="none" /><path d="M 118.73160827565052 90.50648371742162 l 1.9784403434124134 -1.002709182142741 a23.218028831281323,23.218028831281323 0 0,0 0.1776068500335442,0.35804457195073286 l -1.9954072063993658 0.9685050216930583" fill="#0018ED" stroke="none" /><path d="M 119.196687751892 91.48605970444005 l 2.782595868261981 -1.2341116027539356 a24.043989358411185,24.043989358411185 0 0,0 0.1645402211070195,0.3797815160826481 l -2.8034267992116813 1.1860309420846848" fill="#0018ED" stroke="none" /><path d="M 119.61058180528143 92.48833698450437 l 2.6519290232612907 -1.0157983766899987 a23.83981934046897,23.83981934046897 0 0,0 0.1434877988374042,0.3844759632389267 l -2.6690214106003203 0.9699992764217388" fill="#0018ED" stroke="none" /><path d="M 120.94382443527127 98.46500227214037 l 1.915915387923544 -0.14041971065614772 a22.92105425972901,22.92105425972901 0 0,0 0.0254526399472669,0.39374107437912365 l -1.9180486188752264 0.10741957202398886" fill="#0018ED" stroke="none" /><line stroke="#0018ED" stroke-width="0.3" x1="184.98032266829074" x2="189.97916517819016" y1="98.17113171792111" y2="98.06355123074" /><path d="M 185.9800911702706 98.14961562048488 a86.0,86.0 0 0,1 -9.607161424134198,41.387399972396054" fill="none" id="id88" stroke="none" /><text fill="#0018ED" style="font-size:6.75px; font-family:Arial;" text-anchor="middle"><textPath startOffset="21.466115282336823" xlink:href="#id88">April</textPath></text><path d="M 120.89721153311464 102.0752229133903 l 6.284715251160284 0.6241112634895842 a27.31562828682794,27.31562828682794 0 0,0 -0.0504918963403536,0.4674922512530379 l -6.273041053318878 -0.7321998366274136" fill="#0018ED" stroke="none" /><path d="M 120.32669344350535 105.2749913415812 l 2.2097942333470253 0.5734649110530121 a23.28299201880839,23.28299201880839 0 0,0 -0.10401058427635537,0.3870620769793979 l -2.1995955727288927 -0.6114179212079582" fill="#0018ED" stroke="none" /><path d="M 120.13307415673323 105.97154293290107 l 4.536396703914585 1.3455117418835534 a25.731732970364412,25.731732970364412 0 0,0 -0.12960611644218098,0.4235602874927578 l -4.5125638149662715 -1.4233990019283684" fill="#0018ED" stroke="none" /><line stroke="#0018ED" stroke-width="0.3" x1="174.80103733775053" x2="179.2010983576182" y1="140.37084112569926" y2="142.7455964860345" /><path d="M 175.68104954172406 140.8457921977663 a86.0,86.0 0 0,1 -30.038265399797805,32.042727171017184" fill="none" id="id89" stroke="none" /><text fill="#0018ED" style="font-size:6.75px; font-family:Arial;" text-anchor="middle"><textPath startOffset="22.206326154141568" xlink:href="#id89">May</textPath></text><line stroke="#0018ED" stroke-width="0.3" x1="143.8653032363475" x2="146.44561519142675" y1="172.8068346515853" y2="177.08958963109032" /><path d="M 144.38136562736335 173.6633856474863 a86.0,86.0 0 0,1 -40.68145358897372,12.25698825130547" fill="none" id="id90" stroke="none" /><text fill="#0018ED" style="font-size:6.75px; font-family:Arial;" text-anchor="middle"><textPath startOffset="21.466115282336833" xlink:href="#id90">June</textPath></text><path d="M 107.2578585660854 119.70592522655815 l 1.8522963920746327 5.029198883842873 a26.35946297098311,26.35946297098311 0 0,0 -0.4271242686347795,0.15315156637884605 l -1.7654525628101185 -5.060337991261679" fill="#0018ED" stroke="none" /><path d="M 101.62511606390274 120.93702456842531 l 0.38385379033008926 4.945342931091278 a25.960217781352473,25.960217781352473 0 0,0 -0.4458200604878418,0.030746361568571745 l -0.29867096906331714 -4.951217637176135" fill="#0018ED" stroke="none" /><line stroke="#0018ED" stroke-width="0.3" x1="102.19456741930631" x2="102.32365962044197" y1="184.97166512339345" y2="189.96999836594603" /><path d="M 102.22038585953345 185.97133177190398 a86.0,86.0 0 0,1 -42.740103519485714,-10.115201625700543" fill="none" id="id91" stroke="none" /><text fill="#0018ED" style="font-size:6.75px; font-family:Arial;" text-anchor="middle"><textPath startOffset="22.20632615414155" xlink:href="#id91">July</textPath></text><path d="M 96.93821686468263 120.77559828337769 l -0.4051806859895105 2.749336184918575 a23.77903235785436,23.77903235785436 0 0,0 -0.4044294074437228,-0.06316355593185993 l 0.45244595704175045 -2.7419543216396094" fill="#0018ED" stroke="none" /><path d="M 95.86986931433489 120.58985236759428 l -0.294516526917263 1.4682469564680416 a22.497494277052528,22.497494277052528 0 0,0 -0.3790383605554614,-0.0794311737753482 l 0.3197463489021112 -1.4629598019661523" fill="#0018ED" stroke="none" /><path d="M 95.16358092515715 120.4354850818985 l -1.1539506715106174 4.875826798294606 a26.010517849409144,26.010517849409144 0 0,0 -0.43480508824586533,-0.10686451193559451 l 1.2377090444996932 -4.855241028044982" fill="#0018ED" stroke="none" /><path d="M 94.81253420990036 120.34920634021253 l -0.3889189468408464 1.525637415091371 a22.574429251995298,22.574429251995298 0 0,0 -0.3757132748403924,-0.09922929069016394 l 0.41512266449272806 -1.5187167750976254" fill="#0018ED" stroke="none" /><path d="M 94.46302465271185 120.25689768951611 l -16.610926041864456 60.77069306854834 a84.0,84.0 0 0,0 -1.3914753275815444,-0.39324482664591454 l 17.65453253755061 -60.475759448563906" fill="#0018ED" stroke="none" /><line stroke="#0018ED" stroke-width="0.3" x1="58.666819895761336" x2="56.23545636021788" y1="174.27360380694188" y2="178.64263932499728" /><path d="M 58.180547188652646 175.14741091055294 a86.0,86.0 0 0,1 -31.652253787137756,-30.449443065178592" fill="none" id="id92" stroke="none" /><text fill="#0018ED" style="font-size:6.75px; font-family:Arial;" text-anchor="middle"><textPath startOffset="22.20632615414155" xlink:href="#id92">August</textPath></text><path d="M 82.24976979558568 111.22182372390057 l -3.7771070371163153 2.387914346388737 a25.468632060879788,25.468632060879788 0 0,0 -0.2310797612801896,-0.3725741525814535 l 3.817651438064461 -2.322543862442019" fill="#0018ED" stroke="none" /><line stroke="#0018ED" stroke-width="0.3" x1="26.63291911575756" x2="22.317208475507996" y1="142.92168965132927" y2="145.44649492493687" /><path d="M 25.769776987707644 143.4266507060508 a86.0,86.0 0 0,1 -11.730757126820373,-40.83630448921669" fill="none" id="id93" stroke="none" /><text fill="#0018ED" style="font-size:6.75px; font-family:Arial;" text-anchor="middle"><textPath startOffset="21.46611528233685" xlink:href="#id93">September</textPath></text><path d="M 81.51974371655577 109.97397251340807 l -1.0276427856152002 0.5546287205178214 a22.16775969807585,22.16775969807585 0 0,0 -0.17834225710777962,-0.33735634041352147 l 1.0370375509478658 -0.5368573650181738" fill="#0018ED" stroke="none" /><path d="M 79.07016306316243 101.71520430193888 l -5.083866844894157 0.41662389961096585 a26.100909484625376,26.100909484625376 0 0,0 -0.032841707170213896,-0.4480990014797114 l 5.090285110728706 -0.32905176163449384" fill="#0018ED" stroke="none" /><line stroke="#0018ED" stroke-width="0.3" x1="15.007084014347285" x2="10.007500721073583" y1="101.09737516637583" y2="101.16192664675087" /><path d="M 14.007167355692545 101.11028546245083 a86.0,86.0 0 0,1 10.666146001902534,-42.60595125391555" fill="none" id="id94" stroke="none" /><text fill="#0018ED" style="font-size:6.75px; font-family:Arial;" text-anchor="middle"><textPath startOffset="22.20632615414155" xlink:href="#id94">October</textPath></text><line stroke="#0018ED" stroke-width="0.3" x1="26.266209847984243" x2="21.928928074336255" y1="57.711370442889674" y2="55.22380399835377" /><path d="M 25.398753493254645 57.213857153982495 a86.0,86.0 0 0,1 29.58750427330803,-30.492523968695096" fill="none" id="id95" stroke="none" /><text fill="#0018ED" style="font-size:6.75px; font-family:Arial;" text-anchor="middle"><textPath startOffset="21.46611528233685" xlink:href="#id95">November</textPath></text><line stroke="#0018ED" stroke-width="0.3" x1="56.762969772571076" x2="54.21961505331055" y1="26.818313649435495" y2="22.513508569990535" /><path d="M 56.25429882871897 25.957352633546506 a86.0,86.0 0 0,1 42.265352541879196,-11.944610805530505" fill="none" id="id96" stroke="none" /><text fill="#0018ED" style="font-size:6.75px; font-family:Arial;" text-anchor="middle"><textPath startOffset="22.20632615414155" xlink:href="#id96">December</textPath></text></svg>