<?xml version="1.0" encoding="utf-8" ?>
<svg baseProfile="full" height="200mm" version="1.1" viewBox="0,0,200,200" width="200mm" xmlns="http://www.w3.org/2000/svg" xmlns:ev="http://www.w3.org/2001/xml-events" xmlns:xlink="http://www.w3.org/1999/xlink"><defs /><rect fill="#1a1a1a" height="200" width="200" x="0" y="0" /><text alignment-baseline="middle" fill="#e1ed5e" style="dominant-baseline: central; font-size:9.0px; font-family:Arial;" text-anchor="middle" x="100.0" y="100.0">2024</text><line stroke="#e1ed5e" stroke-width="0.3" x1="100.0" x2="100.0" y1="15.0" y2="10.0" /><path d="M 100.0 14.0 a86.0,86.0 0 0,1 42.35913384403234,11.155469271406648" fill="none" id="id73" stroke="none" /><text fill="#e1ed5e" style="font-size:6.75px; font-family:Arial;" text-anchor="middle"><textPath startOffset="22.145653131862478" xlink:href="#id73">January</textPath></text><line stroke="#e1ed5e" stroke-width="0.3" x1="143.13028292997686" x2="145.6673583964461" y1="26.7553504044142" y2="22.446841604673864" /><path d="M 143.63769802327073 25.89364864446614 a86.0,86.0 0 0,1 29.32050498858742,28.57503671076993" fill="none" id="id74" stroke="none" /><text fill="#e1ed5e" style="font-size:6.75px; font-family:Arial;" text-anchor="middle"><textPath startOffset="20.669276256404974" xlink:href="#id74">February</textPath></text><line stroke="#e1ed5e" stroke-width="0.3" x1="172.87174338648825" x2="177.1583165268699" y1="56.24261187166439" y2="53.66864786411523" /><path d="M 173.72905801456457 55.72781907015455 a86.0,86.0 0 0,1 12.242430191666344,42.057860355516425" fill="none" id="id75" stroke="none" /><text fill="#e1ed5e" style="font-size:6.75px; font-family:Arial;" text-anchor="middle"><textPath startOffset="22.145653131862474" xlink:href="#id75">March</textPath></text><line stroke="#e1ed5e" stroke-width="0.3" x1="184.99686870605535" x2="189.99668451229388" y1="99.2704041080226" y2="99.22748670261217" /><path d="M 185.99683186730306 99.26182062694052 a86.0,86.0 0 0,1 -10.086455211305974,41.156179273409016" fill="none" id="id76" stroke="none" /><text fill="#e1ed5e" style="font-size:6.75px; font-family:Arial;" text-anchor="middle"><textPath startOffset="21.40746469413373" xlink:href="#id76">April</textPath></text><line stroke="#e1ed5e" stroke-width="0.3" x1="174.33088141563837" x2="178.70328620479359" y1="141.23008692659167" y2="143.65538615756765" /><path d="M 175.20536237346943 141.71514677278685 a86.0,86.0 0 0,1 -30.301960400862466,31.631185727798858" fill="none" id="id77" stroke="none" /><text fill="#e1ed5e" style="font-size:6.75px; font-family:Arial;" text-anchor="middle"><textPath startOffset="22.145653131862474" xlink:href="#id77">May</textPath></text><line stroke="#e1ed5e" stroke-width="0.3" x1="143.1302829299769" x2="145.66735839644613" y1="173.24464959558577" y2="177.55315839532614" /><path d="M 143.63769802327073 174.10635135553383 a86.0,86.0 0 0,1 -40.68552437913181,11.842963189579606" fill="none" id="id78" stroke="none" /><text fill="#e1ed5e" style="font-size:6.75px; font-family:Arial;" text-anchor="middle"><textPath startOffset="21.407464694133747" xlink:href="#id78">June</textPath></text><line stroke="#e1ed5e" stroke-width="0.3" x1="101.45913802915013" x2="101.54496967792366" y1="184.9874750549273" y2="189.98673829345242" /><path d="M 101.47630435890484 185.9873277026323 a86.0,86.0 0 0,1 -42.54439059252881,-10.42667462771756" fill="none" id="id79" stroke="none" /><text fill="#e1ed5e" style="font-size:6.75px; font-family:Arial;" text-anchor="middle"><textPath startOffset="22.145653131862474" xlink:href="#id79">July</textPath></text><line stroke="#e1ed5e" stroke-width="0.3" x1="58.13341422392154" x2="55.67067388415222" y1="173.97424548756322" y2="178.32567169271397" /><path d="M 57.64086615596768 174.84453072859336 a86.0,86.0 0 0,1 -31.369924170532247,-30.572349798747897" fill="none" id="id80" stroke="none" /><text fill="#e1ed5e" style="font-size:6.75px; font-family:Arial;" text-anchor="middle"><textPath startOffset="22.145653131862474" xlink:href="#id80">August</textPath></text><line stroke="#e1ed5e" stroke-width="0.3" x1="26.387840678322732" x2="22.057713659400548" y1="142.50000000000003" y2="145.00000000000006" /><path d="M 25.521815274538298 143.00000000000003 a86.0,86.0 0 0,1 -11.493303480769221,-40.785679425670985" fill="none" id="id81" stroke="none" /><text fill="#e1ed5e" style="font-size:6.75px; font-family:Arial;" text-anchor="middle"><textPath startOffset="21.40746469413373" xlink:href="#id81">September</textPath></text><path d="M 80.83023694016515 108.57439118712176 l -23.37705668408935 10.456260110636372 a46.60898581967689,46.60898581967689 0 0,0 -0.32041706409109233,-0.7331769478818501 l 23.55310763019741 -10.053421092978672" fill="#f54700" stroke="none" /><path d="M 80.68587082218212 108.24405325689762 l -45.163370913249345 19.277557462827033 a70.10554239574526,70.10554239574526 0 0,0 -0.4629441373829325,-1.1108974008233339 l 45.48764089516876 -18.499427552562416" fill="#10bb00" stroke="none" /><path d="M 80.5471966667186 107.91128576633889 l -36.23025452450422 14.734529107183233 a60.11186125615589,60.11186125615589 0 0,0 -0.38054049931646916,-0.9592106457303397 l 36.47785369878681 -14.110417444239328" fill="#a5d400" stroke="none" /><path d="M 80.16572619554312 106.89939002012753 l -50.960282014420116 17.726631416884494 a74.9553871673562,74.9553871673562 0 0,0 -0.412306664262721,-1.2189113907996694 l 51.2570741002552 -16.849218351610663" fill="#00af2c" stroke="none" /><path d="M 79.73907114497094 105.5222062557868 l -54.741503363214264 14.920040166296832 a77.73834496201584,77.73834496201584 0 0,0 -0.3398665624925464,-1.2905286957881448 l 54.98955940651154 -13.978130966135884" fill="#00a84b" stroke="none" /><path d="M 79.48165901384964 104.47187691870673 l -40.11348707505836 8.742547806417454 a62.05513350932339,62.05513350932339 0 0,0 -0.21790893333700243,-1.0427731299394174 l 40.257653719219725 -8.052658225192626" fill="#85cf00" stroke="none" /><path d="M 79.407916724674 104.11899336999214 l -60.714435020309885 12.144587410984808 a82.9171512847489,82.9171512847489 0 0,0 -0.26720528861144166,-1.3981309802225805 l 60.913966601203484 -11.100553865728914" fill="#009c7d" stroke="none" /><path d="M 79.22317932658666 103.0534771498775 l -51.12302389563232 7.5133239946431605 a72.67217442378319,72.67217442378319 0 0,0 -0.17079858579379706,-1.2358134835836039 l 51.24446699798133 -6.634622202859471" fill="#00b511" stroke="none" /><path d="M 79.17382384314188 102.69636545807758 l -62.47852847057439 8.089096374232748 a84.0,84.0 0 0,0 -0.1728716549613547,-1.431625292306403 l 62.6081822117954 -7.015377405002945" fill="#009986" stroke="none" /><path d="M 79.03789590574601 101.26102812881392 l -23.861672635778117 1.4354589720081448 a44.90481046645969,44.90481046645969 0 0,0 -0.03968390038149292,-0.7698570657617758 l 23.882798125616183 -1.0256301128696381" fill="#f92a00" stroke="none" /><line stroke="#e1ed5e" stroke-width="0.3" x1="15.003131293944662" x2="10.003315487706104" y1="100.72959589197737" y2="100.7725132973878" /><path d="M 14.003168132696942 100.73817937305945 a86.0,86.0 0 0,1 10.791469493833604,-42.45332614584628" fill="none" id="id82" stroke="none" /><text fill="#e1ed5e" style="font-size:6.75px; font-family:Arial;" text-anchor="middle"><textPath startOffset="22.145653131862435" xlink:href="#id82">October</textPath></text><path d="M 79.03789590574601 98.7389718711861 l -23.608800926380116 -1.4202468379066007 a44.65148160817902,44.65148160817902 0 0,0 0.05259527538558847,-0.764723761030181 l 23.580941689829466 1.8253140230911067" fill="#fa2600" stroke="none" /><path d="M 79.0935383218832 98.0201363427161 l -24.542790473801976 -2.324227774912084 a45.652598219875685,45.652598219875685 0 0,0 0.08058250442888804,-0.779562631794408 l 24.499275576891424 2.7451949289894046" fill="#f73700" stroke="none" /><path d="M 79.17382384314186 97.30363454192245 l -23.29319616555103 -3.0157705896640956 a44.48761077368927,44.48761077368927 0 0,0 0.10455750176377031,-0.7565259975013858 l 23.237994147232055 3.4151848953655484" fill="#fa2300" stroke="none" /><path d="M 79.2786578344484 96.59031103205396 l -48.377305046405006 -7.9604671356623165 a70.0278765659995,70.0278765659995 0 0,0 0.20536569328325557,-1.1844947450485612 l 48.23352453562952 8.789754913631471" fill="#11bb00" stroke="none" /><path d="M 79.48165901384962 95.52812308129327 l -22.52735928928722 -4.909733107231963 a44.056179122588475,44.056179122588475 0 0,0 0.16739069405965068,-0.7375542836826275 l 22.439757733669904 5.295721724853599" fill="#fb1c00" stroke="none" /><path d="M 80.5471966667186 92.08871423366112 l -21.450528503747602 -8.72374320167039 a44.15661608566283,44.15661608566283 0 0,0 0.2915895925622019,-0.6997088726853117 l 21.29761306664892 9.090684583796964" fill="#fb1e00" stroke="none" /><path d="M 80.9802524753101 91.09779779509293 l -31.90070283132656 -14.931139685974914 a56.22206373077395,56.22206373077395 0 0,0 0.4166342512765978,-0.8706053444451233 l 31.639689322090057 15.476557532485126" fill="#ddd300" stroke="none" /><path d="M 81.29705330413844 90.45014215332179 l -19.097930602381528 -9.751539443719073 a42.44349493006655,42.44349493006655 0 0,0 0.3369041966354829,-0.6460582195319738 l 18.927718336771104 10.077943906355534" fill="#ff0000" stroke="none" /><line stroke="#e1ed5e" stroke-width="0.3" x1="26.387840678322718" x2="22.05771365940052" y1="57.49999999999999" y2="54.99999999999999" /><path d="M 25.521815274538284 56.99999999999999 a86.0,86.0 0 0,1 29.574782752854787,-30.34633250058573" fill="none" id="id83" stroke="none" /><text fill="#e1ed5e" style="font-size:6.75px; font-family:Arial;" text-anchor="middle"><textPath startOffset="21.40746469413373" xlink:href="#id83">November</textPath></text><path d="M 81.81346652052679 89.5 l -38.193445840138104 -22.05099623708313 a65.10199247416625,65.10199247416625 0 0,0 0.5670888545932504,-0.9630408525647792 l 37.80928327541507 22.703388257941484" fill="#56c700" stroke="none" /><line stroke="#e1ed5e" stroke-width="0.3" x1="56.869717070023135" x2="54.33264160355391" y1="26.7553504044142" y2="22.446841604673864" /><path d="M 56.362301976729285 25.89364864446614 a86.0,86.0 0 0,1 42.16139366436587,-11.88097634709845" fill="none" id="id84" stroke="none" /><text fill="#e1ed5e" style="font-size:6.75px; font-family:Arial;" text-anchor="middle"><textPath startOffset="22.145653131862474" xlink:href="#id84">December</textPath></text></svg>