<?xml version="1.0" encoding="utf-8" ?>
<svg baseProfile="full" height="200mm" version="1.1" viewBox="0,0,200,200" width="200mm" xmlns="http://www.w3.org/2000/svg" xmlns:ev="http://www.w3.org/2001/xml-events" xmlns:xlink="http://www.w3.org/1999/xlink"><defs /><rect fill="#1a1a1a" height="200" width="200" x="0" y="0" /><text alignment-baseline="middle" fill="#e1ed5e" style="dominant-baseline: central; font-size:9.0px; font-family:Arial;" text-anchor="middle" x="100.0" y="100.0">2024</text><line stroke="#e1ed5e" stroke-width="0.3" x1="100.0" x2="100.0" y1="15.0" y2="10.0" /><path d="M 100.0 14.0 a86.0,86.0 0 0,1 42.35913384403234,11.155469271406648" fill="none" id="id73" stroke="none" /><text fill="#e1ed5e" style="font-size:6.75px; font-family:Arial;" text-anchor="middle"><textPath startOffset="22.145653131862478" xlink:href="#id73">January</textPath></text><line stroke="#e1ed5e" stroke-width="0.3" x1="143.13028292997686" x2="145.6673583964461" y1="26.7553504044142" y2="22.446841604673864" /><path d="M 143.63769802327073 25.89364864446614 a86.0,86.0 0 0,1 29.32050498858742,28.57503671076993" fill="none" id="id74" stroke="none" /><text fill="#e1ed5e" style="font-size:6.75px; font-family:Arial;" text-anchor="middle"><textPath startOffset="20.669276256404974" xlink:href="#id74">February</textPath></text><line stroke="#e1ed5e" stroke-width="0.3" x1="172.87174338648825" x2="177.1583165268699" y1="56.24261187166439" y2="53.66864786411523" /><path d="M 173.72905801456457 55.72781907015455 a86.0,86.0 0 0,1 12.242430191666344,42.057860355516425" fill="none" id="id75" stroke="none" /><text fill="#e1ed5e" style="font-size:6.75px; font-family:Arial;" text-anchor="middle"><textPath startOffset="22.145653131862474" xlink:href="#id75">March</textPath></text><line stroke="#e1ed5e" stroke-width="0.3" x1="184.99686870605535" x2="189.99668451229388" y1="99.2704041080226" y2="99.22748670261217" /><path d="M 185.99683186730306 99.26182062694052 a86.0,86.0 0 0,1 -10.086455211305974,41.156179273409016" fill="none" id="id76" stroke="none" /><text fill="#e1ed5e" style="font-size:6.75px; font-family:Arial;" text-anchor="middle"><textPath startOffset="21.40746469413373" xlink:href="#id76">April</textPath></text><line stroke="#e1ed5e" stroke-width="0.3" x1="174.33088141563837" x2="178.70328620479359" y1="141.23008692659167" y2="143.65538615756765" /><path d="M 175.20536237346943 141.71514677278685 a86.0,86.0 0 0,1 -30.301960400862466,31.631185727798858" fill="none" id="id77" stroke="none" /><text fill="#e1ed5e" style="font-size:6.75px; font-family:Arial;" text-anchor="middle"><textPath startOffset="22.145653131862474" xlink:href="#id77">May</textPath></text><line stroke="#e1ed5e" stroke-width="0.3" x1="143.1302829299769" x2="145.66735839644613" y1="173.24464959558577" y2="177.55315839532614" /><path d="M 143.63769802327073 174.10635135553383 a86.0,86.0 0 0,1 -40.68552437913181,11.842963189579606" fill="none" id="id78" stroke="none" /><text fill="#e1ed5e" style="font-size:6.75px; font-family:Arial;" text-anchor="middle"><textPath startOffset="21.407464694133747" xlink:href="#id78">June</textPath></text><line stroke="#e1ed5e" stroke-width="0.3" x1="101.45913802915013" x2="101.54496967792366" y1="184.9874750549273" y2="189.98673829345242" /><path d="M 101.47630435890484 185.9873277026323 a86.0,86.0 0 0,1 -42.54439059252881,-10.42667462771756" fill="none" id="id79" stroke="none" /><text fill="#e1ed5e" style="font-size:6.75px; font-family:Arial;" text-anchor="middle"><textPath startOffset="22.145653131862474" xlink:href="#id79">July</textPath></text><line stroke="#e1ed5e" stroke-width="0.3" x1="58.13341422392154" x2="55.67067388415222" y1="173.97424548756322" y2="178.32567169271397" /><path d="M 57.64086615596768 174.84453072859336 a86.0,86.0 0 0,1 -31.369924170532247,-30.572349798747897" fill="none" id="id80" stroke="none" /><text fill="#e1ed5e" style="font-size:6.75px; font-family:Arial;" text-anchor="middle"><textPath startOffset="22.145653131862474" xlink:href="#id80">August</textPath></text><line stroke="#e1ed5e" stroke-width="0.3" x1="26.387840678322732" x2="22.057713659400548" y1="142.50000000000003" y2="145.00000000000006" /><path d="M 25.521815274538298 143.00000000000003 a86.0,86.0 0 0,1 -11.493303480769221,-40.785679425670985" fill="none" id="id81" stroke="none" /><text fill="#e1ed5e" style="font-size:6.75px; font-family:Arial;" text-anchor="middle"><textPath startOffset="21.40746469413373" xlink:href="#id81">September</textPath></text><path d="M 80.83023694016515 108.57439118712176 l -20.81502918476127 9.3102977978611 a43.80234823537525,43.80234823537525 0 0,0 -0.3011226177753351,-0.689027478811016 l 20.971785684553574 -8.951608249274235" fill="#fd1606" stroke="none" /><path d="M 80.68587082218212 108.24405325689762 l -40.21365462493439 17.164817907669292 a64.72378062447198,64.72378062447198 0 0,0 -0.4274055055478302,-1.025617621803741 l 40.50238597501871 -16.471967776424272" fill="#f3a736" stroke="none" /><path d="M 80.5471966667186 107.91128576633889 l -32.2595703766315 13.119686431631752 a55.825365079912416,55.825365079912416 0 0,0 -0.3534046668677811,-0.8908106215219049 l 32.48003371846541 -12.563974792896282" fill="#f77122" stroke="none" /><path d="M 80.16572619554312 106.89939002012753 l -45.375248549393696 15.783866860411402 a69.04210272236685,69.04210272236685 0 0,0 -0.3797794947491199,-1.1227505938319622 l 45.63951346571518 -15.002614592105278" fill="#f2be3f" stroke="none" /><path d="M 79.73907114497094 105.5222062557868 l -48.7420638757543 13.284866255667241 a71.52005999896554,71.52005999896554 0 0,0 -0.3126806591134143,-1.1872993925745836 l 48.96293401567244 -12.446186358719855" fill="#f1c944" stroke="none" /><path d="M 79.48165901384964 104.47187691870673 l -35.71721690430633 7.784401184414493 a57.555662833399424,57.555662833399424 0 0,0 -0.20210887296932303,-0.9671641213938321 l 35.845583488100026 -7.1701206117352525" fill="#f67d26" stroke="none" /><path d="M 79.407916724674 104.11899336999214 l -54.06038724045949 10.81359149753803 a76.13129083981312,76.13129083981312 0 0,0 -0.24533746307026752,-1.283709276527645 l 54.23805099581191 -9.88397965597707" fill="#efdd4e" stroke="none" /><path d="M 79.22317932658666 103.0534771498775 l -45.52015460205859 6.689895153888431 a67.00912053240461,67.00912053240461 0 0,0 -0.15748893043270779,-1.1395114475881614 l 45.62828804904651 -5.907495398100184" fill="#f2b33a" stroke="none" /><path d="M 79.17382384314188 102.69636545807758 l -55.63114343736316 7.202565292259341 a77.09546387131256,77.09546387131256 0 0,0 -0.15866214796960873,-1.313950190479352 l 55.74658767159242 -6.2465214248565895" fill="#efe150" stroke="none" /><path d="M 79.03789590574601 101.26102812881392 l -21.24653325792666 1.2781386810005457 a42.28494336304547,42.28494336304547 0 0,0 -0.03736863517795098,-0.7249415393411319 l 21.265343482561185 -0.913225348282683" fill="#fe0902" stroke="none" /><line stroke="#e1ed5e" stroke-width="0.3" x1="15.003131293944662" x2="10.003315487706104" y1="100.72959589197737" y2="100.7725132973878" /><path d="M 14.003168132696942 100.73817937305945 a86.0,86.0 0 0,1 10.791469493833604,-42.45332614584628" fill="none" id="id82" stroke="none" /><text fill="#e1ed5e" style="font-size:6.75px; font-family:Arial;" text-anchor="middle"><textPath startOffset="22.145653131862435" xlink:href="#id82">October</textPath></text><path d="M 79.03789590574601 98.7389718711861 l -21.021375228742322 -1.2645937330815178 a42.059378286581264,42.059378286581264 0 0,0 0.04954201974619755,-0.7203300941309405 l 20.99656924783106 1.6252672513667834" fill="#ff0702" stroke="none" /><path d="M 79.0935383218832 98.0201363427161 l -21.85300343371989 -2.06950214565527 a42.95077671074637,42.95077671074637 0 0,0 0.07581345398674497,-0.733426394900478 l 21.814257587251483 2.444333062838661" fill="#fe0f04" stroke="none" /><path d="M 79.17382384314186 97.30363454192245 l -20.740359427810546 -2.685254764391576 a41.913467009189496,41.913467009189496 0 0,0 0.09850759176599491,-0.712751862516778 l 20.691207319489344 3.040894935108421" fill="#ff0602" stroke="none" /><path d="M 79.2786578344484 96.59031103205396 l -43.0753550384457 -7.088033279481214 a64.65462664436821,64.65462664436821 0 0,0 0.18960795151737456,-1.0936082779998795 l 42.94733226943609 7.8264345904016865" fill="#f3a735" stroke="none" /><path d="M 79.48165901384962 95.52812308129327 l -40.2545221488429 -8.773285744324353 a62.19947931932209,62.19947931932209 0 0,0 0.23632585078336882,-1.0412953035973502 l 40.09798543650187 9.46301538186071" fill="#f49930" stroke="none" /><path d="M 80.5471966667186 92.08871423366112 l -19.099640423849745 -7.767657485585871 a41.618747952621504,41.618747952621504 0 0,0 0.27483070113233093,-0.6594936341138284 l 18.963483878180934 8.094383629140964" fill="#ff0301" stroke="none" /><path d="M 80.9802524753101 91.09779779509293 l -57.05924257406971 -26.706606614721213 a84.0,84.0 0 0,0 0.6224829681603801,-1.3007499917396512 l 56.59238034794942 27.68216910852595" fill="#e0ed5e" stroke="none" /><path d="M 81.29705330413844 90.45014215332179 l -34.112296771810854 -17.417981791424193 a59.30189134670091,59.30189134670091 0 0,0 0.4707212753342798,-0.9026701123801184 l 33.80826742750163 18.0009981469088" fill="#f6882a" stroke="none" /><line stroke="#e1ed5e" stroke-width="0.3" x1="26.387840678322718" x2="22.05771365940052" y1="57.49999999999999" y2="54.99999999999999" /><path d="M 25.521815274538284 56.99999999999999 a86.0,86.0 0 0,1 29.574782752854787,-30.34633250058573" fill="none" id="id83" stroke="none" /><text fill="#e1ed5e" style="font-size:6.75px; font-family:Arial;" text-anchor="middle"><textPath startOffset="21.40746469413373" xlink:href="#id83">November</textPath></text><path d="M 81.81346652052679 89.5 l -34.00760414676825 -19.634299408630888 a60.26859881726177,60.26859881726177 0 0,0 0.5249862465389744,-0.8915414195793204 l 33.665544190099496 20.215191996503783" fill="#f58d2c" stroke="none" /><path d="M 82.37810715431573 88.57770195909679 l -22.891963246215976 -14.838294003343641 a48.28033999413803,48.28033999413803 0 0,0 0.4567677922587305,-0.6916046548032428 l 22.63387101503652 15.229078536485945" fill="#fb3b11" stroke="none" /><path d="M 82.78059297857968 87.97951657250589 l -32.168563435216605 -22.456155614319155 a60.23130635678695,60.23130635678695 0 0,0 0.599114785416595,-0.8427299748885543 l 31.778333551270038 23.005062815917228" fill="#f58d2c" stroke="none" /><path d="M 83.64595745247003 86.82634096563983 l -16.25451017706605 -13.093482802241255 a41.872191858761056,41.872191858761056 0 0,0 0.45571536356048503,-0.5558986452621678 l 16.027347994266936 13.370583729201915" fill="#ff0602" stroke="none" /><path d="M 84.10781606972428 86.27271002978789 l -15.31733518825889 -13.230749318197415 a41.24039240702747,41.24039240702747 0 0,0 0.4673693862323146,-0.531780567717482 l 15.087954738067982 13.491742163726197" fill="#ff0000" stroke="none" /><path d="M 84.83555147118756 85.47280134310135 l -29.313157974946392 -28.08134224953891 a61.59338632092551,61.59338632092551 0 0,0 0.7379861409601178,-0.7572387936556587 l 28.826785032835474 28.580403735262298" fill="#f5952f" stroke="none" /><path d="M 85.60350026404147 84.71141617570332 l -14.918736170579603 -15.843180820319512 a42.76177996931088,42.76177996931088 0 0,0 0.538737805023952,-0.4986476694417481 l 14.644568594241697 16.096946235893625" fill="#fe0d04" stroke="none" /><path d="M 86.68645165197937 83.75963576809568 l -13.55364716652427 -16.53324575095695 a42.378717608317096,42.378717608317096 0 0,0 0.5665615391365532,-0.4563818711413638 l 13.26783485703247 16.763475915891714" fill="#fe0a03" stroke="none" /><path d="M 88.4268655584334 82.4767994020092 l -11.270043266987887 -17.064281929203222 a41.450026723677176,41.450026723677176 0 0,0 0.5971061251067894,-0.3870369762626798 l 10.975451509624072 17.25523274716981" fill="#ff0200" stroke="none" /><line stroke="#e1ed5e" stroke-width="0.3" x1="56.869717070023135" x2="54.33264160355391" y1="26.7553504044142" y2="22.446841604673864" /><path d="M 56.362301976729285 25.89364864446614 a86.0,86.0 0 0,1 42.16139366436587,-11.88097634709845" fill="none" id="id84" stroke="none" /><text fill="#e1ed5e" style="font-size:6.75px; font-family:Arial;" text-anchor="middle"><textPath startOffset="22.145653131862474" xlink:href="#id84">December</textPath></text><path d="M 89.65649057296885 81.72400993836675 l -10.735307675530105 -18.968260025347824 a42.795451802555135,42.795451802555135 0 0,0 0.642453090535281,-0.3563578994968634 l 10.408110396838723 19.149750840277836" fill="#fe0e04" stroke="none" /><path d="M 90.61103034731259 81.2157712731953 l -9.723243584736844 -19.453000512133443 a42.74765952311168,42.74765952311168 0 0,0 0.659209114504529,-0.3224522112941539 l 9.387874220970263 19.61704647352481" fill="#fe0d04" stroke="none" /><path d="M 91.5904679813234 80.7573450057729 l -8.730828598966372 -19.977844447291826 a42.8023309942932,42.8023309942932 0 0,0 0.6757976980311023,-0.28845785187435713 l 8.38659582576484 20.124776948825588" fill="#fe0e04" stroke="none" /><path d="M 92.592206182469 80.34994680014964 l -7.6894128476797174 -20.39708113567337 a42.798348304339584,42.798348304339584 0 0,0 0.6896869217844626,-0.25326259083853747 l 7.3381367742411285 20.52607457552063" fill="#fe0e04" stroke="none" /><path d="M 93.61358852112211 79.99465700312896 l -6.640652338599775 -20.801748868834878 a42.836002827537456,42.836002827537456 0 0,0 0.7024275630476409,-0.21761385458885837 l 6.282584142680518 20.912679311230377" fill="#fe0e04" stroke="none" /><path d="M 94.6519064749342 79.69241777938228 l -5.535642398878051 -21.01973584274039 a42.73643557869692,42.73643557869692 0 0,0 0.7110421132195871,-0.18074412467186593 l 5.1739949924330855 21.111665199247515" fill="#fe0d04" stroke="none" /><path d="M 95.70440661134978 79.44403061299748 l -4.436975223082949 -21.232532645563364 a42.691177738314856,42.691177738314856 0 0,0 0.7186419698721919,-0.14374852071662197 l 4.07183676767978 21.305570562942854" fill="#fe0d03" stroke="none" /><path d="M 96.76829788921471 79.25015418208739 l -3.2174382922242213 -20.658261870577476 a41.907311942897536,41.907311942897536 0 0,0 0.7117755267380373,-0.10460649109407227 l 2.862337659878499 20.710449434970435" fill="#ff0602" stroke="none" /><path d="M 97.84075906011542 79.11130261209362 l -2.3100873785392952 -22.347999845032916 a43.467078153824936,43.467078153824936 0 0,0 0.742873967989782,-0.07035093713178525 l 1.9261138471644976 22.384362537669883" fill="#fe1305" stroke="none" /><path d="M 98.9189461498227 79.02784411241856 l -1.159335710330474 -22.490803061386064 a43.520663436837296,43.520663436837296 0 0,0 0.7464296119766939,-0.03205489922722973 l 0.77308033775296 22.50739052903912" fill="#fe1405" stroke="none" /></svg>