<?xml version="1.0" encoding="utf-8" ?>
<svg baseProfile="full" height="200mm" version="1.1" viewBox="0,0,200,200" width="200mm" xmlns="http://www.w3.org/2000/svg" xmlns:ev="http://www.w3.org/2001/xml-events" xmlns:xlink="http://www.w3.org/1999/xlink"><defs /><rect fill="#EDEBEB" height="200" width="200" x="0" y="0" /><text alignment-baseline="middle" fill="#0018ED" style="dominant-baseline: central; font-size:9.0px; font-family:Arial;" text-anchor="middle" x="100.0" y="100.0">2025</text><line stroke="#0018ED" stroke-width="0.3" x1="100.0" x2="100.0" y1="15.0" y2="10.0" /><path d="M 100.0 14.0 a86.0,86.0 0 0,1 42.46469731375804,11.215312516191453" fill="none" id="id85" stroke="none" /><text fill="#0018ED" style="font-size:6.75px; font-family:Arial;" text-anchor="middle"><textPath startOffset="22.20632615414155" xlink:href="#id85">January</textPath></text><path d="M 100.0 79.0 l 0.0 -63.0 a84.0,84.0 0 0,0 1.4459219170901134,0.012445506434235476 l -1.084441437817585 62.990665870174325" fill="#0018ED" stroke="none" /><path d="M 102.52436894288641 79.15227682838746 l 3.7691416712349755 -31.127788344063674 a52.35515326275198,52.35515326275198 0 0,0 0.8937405395909986,0.11603317256414747 l -4.30439693933382 31.05829684833539" fill="#0018ED" stroke="none" /><path d="M 105.36241919743992 79.69619591428918 l 8.80745684268945 -33.347799126314605 a55.49125980019962,55.49125980019962 0 0,0 0.9214247343792881,0.25186018692685047 l -9.38017946629245 33.19125239856146" fill="#0018ED" stroke="none" /><path d="M 107.08798089147638 80.2323363322302 l 9.865437559939938 -27.513710125092544 a50.228942900773774,50.228942900773774 0 0,0 0.8113592947477398,0.29883047559835146 l -10.337579180460253 27.339816381687868" fill="#0018ED" stroke="none" /><path d="M 110.05341064243156 81.56283822128135 l 15.37820095718727 -28.202407023606067 a53.12265285752066,53.12265285752066 0 0,0 0.7990555410609237,0.4446735434813258 l -15.861380587320228 27.93351808256456" fill="#0018ED" stroke="none" /><line stroke="#0018ED" stroke-width="0.3" x1="143.23703022742887" x2="145.7803849466894" y1="26.81831364943548" y2="22.513508569990506" /><path d="M 143.74570117128098 25.957352633546492 a86.0,86.0 0 0,1 28.547481713284135,27.462654790039103" fill="none" id="id86" stroke="none" /><text fill="#0018ED" style="font-size:6.75px; font-family:Arial;" text-anchor="middle"><textPath startOffset="19.985693538727396" xlink:href="#id86">February</textPath></text><path d="M 110.68208982089419 81.91981866633111 l 15.559050661514359 -26.33477737564764 a51.58765366798332,51.58765366798332 0 0,0 0.7606425947825937,0.4582786524684298 l -16.01005532251459 26.063052113720598" fill="#0018ED" stroke="none" /><path d="M 111.2981086023043 82.29822771554956 l 13.440678844851208 -21.05873156604823 a45.98243428854176,45.98243428854176 0 0,0 0.6635330392445575,0.4315803460969233 l -13.801178909880047 20.82425229579178" fill="#0018ED" stroke="none" /><path d="M 114.16331599549186 84.49514656593476 l 19.12894072697904 -20.940817984653847 a49.36254980079681,49.36254980079681 0 0,0 0.622419715382631,0.5784712916970601 l -19.486568326156515 20.608442106882148" fill="#0018ED" stroke="none" /><path d="M 114.68862486808459 84.99185889309783 l 22.59777837972562 -23.089339517569897 a53.30754071508399,53.30754071508399 0 0,0 0.6502611196346364,0.647468691734622 l -22.99187529952758 22.696934975185158" fill="#0018ED" stroke="none" /><path d="M 115.9244219780498 86.31012108654704 l 15.883122300687932 -13.654374479883687 a41.94553691017514,41.94553691017514 0 0,0 0.4659737415584876,0.5515659343212783 l -16.115806655733536 13.378949595933303" fill="#0018ED" stroke="none" /><path d="M 116.15771136456269 86.58626213691792 l 8.312019547361988 -6.900435885100699 a31.803040514601122,31.803040514601122 0 0,0 0.34604965305435326,0.42421595727308115 l -8.429567692492752 6.756335758219517" fill="#0018ED" stroke="none" /><path d="M 116.60985879189232 87.15038557335679 l 10.330060536687938 -7.991476421528361 a34.06039226392076,34.06039226392076 0 0,0 0.3547536796916165,0.4668142587152507 l -10.466090156603668 7.812477386932077" fill="#0018ED" stroke="none" /><path d="M 116.82858285166822 87.43820079747576 l 7.020463767598347 -5.240468370658143 a29.760674646169072,29.760674646169072 0 0,0 0.30290327850972065,0.41315973147770785 l -7.109629658621694 5.118846195508942" fill="#0018ED" stroke="none" /><path d="M 117.04232023915458 87.72973835380427 l 8.941558773113169 -6.437812699873205 a32.018026395488704,32.018026395488704 0 0,0 0.3181789546440316,0.45004156683930585 l -9.051050347561082 6.282944632702106" fill="#0018ED" stroke="none" /><path d="M 117.65298651832404 88.62581576622439 l 10.481823128687418 -6.753655379943033 a33.4691810914799,33.4691810914799 0 0,0 0.30787248395812294,0.4869803338848046 l -10.596523208891496 6.572227398344022" fill="#0018ED" stroke="none" /><line stroke="#0018ED" stroke-width="0.3" x1="172.23445277983987" x2="176.4835382374775" y1="55.19839476539836" y2="52.563006222186495" /><path d="M 173.08426987136738 54.67131705675599 a86.0,86.0 0 0,1 12.851231095245387,41.99856678651699" fill="none" id="id87" stroke="none" /><text fill="#0018ED" style="font-size:6.75px; font-family:Arial;" text-anchor="middle"><textPath startOffset="22.20632615414155" xlink:href="#id87">March</textPath></text><path d="M 118.3937258080291 89.86733742301442 l 10.545043588383555 -5.809011706266423 a33.03920932970473,33.03920932970473 0 0,0 0.27012212619695414,0.500495275401844 l -10.643473813798975 5.62663544753212" fill="#0018ED" stroke="none" /><path d="M 118.73160827565052 90.50648371742162 l 11.457862881358015 -5.8070511739839 a33.84540638303318,33.84540638303318 0 0,0 0.2589012210931947,0.5219290633572254 l -11.556124115404616 5.608962522127724" fill="#0018ED" stroke="none" /><path d="M 119.196687751892 91.48605970444005 l 16.115018084289595 -7.147186202369098 a38.628842232781935,38.628842232781935 0 0,0 0.2643487379462937,0.6101533339163301 l -16.23565753207857 6.868733723866165" fill="#0018ED" stroke="none" /><path d="M 119.61058180528143 92.48833698450437 l 15.358279172174985 -5.882855429011998 a37.44641988790022,37.44641988790022 0 0,0 0.22538360242247962,0.6039160008150682 l -15.45726736309909 5.617616291167596" fill="#0018ED" stroke="none" /><path d="M 120.94382443527127 98.46500227214037 l 11.095758272523147 -0.8132212810435622 a32.1255193359325,32.1255193359325 0 0,0 0.035673720218579424,0.5518566622191191 l -11.108112583746141 0.6221055545714079" fill="#0018ED" stroke="none" /><line stroke="#0018ED" stroke-width="0.3" x1="184.98032266829074" x2="189.97916517819016" y1="98.17113171792111" y2="98.06355123074" /><path d="M 185.9800911702706 98.14961562048488 a86.0,86.0 0 0,1 -9.607161424134198,41.387399972396054" fill="none" id="id88" stroke="none" /><text fill="#0018ED" style="font-size:6.75px; font-family:Arial;" text-anchor="middle"><textPath startOffset="21.466115282336823" xlink:href="#id88">April</textPath></text><path d="M 120.89721153311464 102.0752229133903 l 36.39705682101703 3.6144538315675225 a57.57608538010698,57.57608538010698 0 0,0 -0.10642719633498511,0.9853836598612256 l -36.32944732318099 -4.2404338133135395" fill="#0018ED" stroke="none" /><path d="M 120.32669344350535 105.2749913415812 l 12.79771685105995 3.3211425050009207 a34.22163167458645,34.22163167458645 0 0,0 -0.1528760522912439,0.5689086618630941 l -12.73865272242693 -3.540942100039563" fill="#0018ED" stroke="none" /><path d="M 120.13307415673323 105.97154293290107 l 26.271912409169328 7.792344659312923 a48.40317530733597,48.40317530733597 0 0,0 -0.24379809872420896,0.7967462926943017 l -26.133887537938985 -8.243417924559282" fill="#0018ED" stroke="none" /><line stroke="#0018ED" stroke-width="0.3" x1="174.80103733775053" x2="179.2010983576182" y1="140.37084112569926" y2="142.7455964860345" /><path d="M 175.68104954172406 140.8457921977663 a86.0,86.0 0 0,1 -30.038265399797805,32.042727171017184" fill="none" id="id89" stroke="none" /><text fill="#0018ED" style="font-size:6.75px; font-family:Arial;" text-anchor="middle"><textPath startOffset="22.206326154141568" xlink:href="#id89">May</textPath></text><line stroke="#0018ED" stroke-width="0.3" x1="143.8653032363475" x2="146.44561519142675" y1="172.8068346515853" y2="177.08958963109032" /><path d="M 144.38136562736335 173.6633856474863 a86.0,86.0 0 0,1 -40.68145358897372,12.25698825130547" fill="none" id="id90" stroke="none" /><text fill="#0018ED" style="font-size:6.75px; font-family:Arial;" text-anchor="middle"><textPath startOffset="21.466115282336833" xlink:href="#id90">June</textPath></text><line stroke="#0018ED" stroke-width="0.3" x1="102.19456741930631" x2="102.32365962044197" y1="184.97166512339345" y2="189.96999836594603" /><path d="M 102.22038585953345 185.97133177190398 a86.0,86.0 0 0,1 -42.740103519485714,-10.115201625700543" fill="none" id="id91" stroke="none" /><text fill="#0018ED" style="font-size:6.75px; font-family:Arial;" text-anchor="middle"><textPath startOffset="22.20632615414155" xlink:href="#id91">July</textPath></text><line stroke="#0018ED" stroke-width="0.3" x1="58.666819895761336" x2="56.23545636021788" y1="174.27360380694188" y2="178.64263932499728" /><path d="M 58.180547188652646 175.14741091055294 a86.0,86.0 0 0,1 -31.652253787137756,-30.449443065178592" fill="none" id="id92" stroke="none" /><text fill="#0018ED" style="font-size:6.75px; font-family:Arial;" text-anchor="middle"><textPath startOffset="22.20632615414155" xlink:href="#id92">August</textPath></text><line stroke="#0018ED" stroke-width="0.3" x1="26.63291911575756" x2="22.317208475507996" y1="142.92168965132927" y2="145.44649492493687" /><path d="M 25.769776987707644 143.4266507060508 a86.0,86.0 0 0,1 -11.730757126820373,-40.83630448921669" fill="none" id="id93" stroke="none" /><text fill="#0018ED" style="font-size:6.75px; font-family:Arial;" text-anchor="middle"><textPath startOffset="21.46611528233685" xlink:href="#id93">September</textPath></text><line stroke="#0018ED" stroke-width="0.3" x1="15.007084014347285" x2="10.007500721073583" y1="101.09737516637583" y2="101.16192664675087" /><path d="M 14.007167355692545 101.11028546245083 a86.0,86.0 0 0,1 10.666146001902534,-42.60595125391555" fill="none" id="id94" stroke="none" /><text fill="#0018ED" style="font-size:6.75px; font-family:Arial;" text-anchor="middle"><textPath startOffset="22.20632615414155" xlink:href="#id94">October</textPath></text><line stroke="#0018ED" stroke-width="0.3" x1="26.266209847984243" x2="21.928928074336255" y1="57.711370442889674" y2="55.22380399835377" /><path d="M 25.398753493254645 57.213857153982495 a86.0,86.0 0 0,1 29.58750427330803,-30.492523968695096" fill="none" id="id95" stroke="none" /><text fill="#0018ED" style="font-size:6.75px; font-family:Arial;" text-anchor="middle"><textPath startOffset="21.46611528233685" xlink:href="#id95">November</textPath></text><line stroke="#0018ED" stroke-width="0.3" x1="56.762969772571076" x2="54.21961505331055" y1="26.818313649435495" y2="22.513508569990535" /><path d="M 56.25429882871897 25.957352633546506 a86.0,86.0 0 0,1 42.265352541879196,-11.944610805530505" fill="none" id="id96" stroke="none" /><text fill="#0018ED" style="font-size:6.75px; font-family:Arial;" text-anchor="middle"><textPath startOffset="22.20632615414155" xlink:href="#id96">December</textPath></text></svg>